<?xml version="1.0" encoding="UTF-8"?>
<svg xmlns="http://www.w3.org/2000/svg" xmlns:xlink="http://www.w3.org/1999/xlink" width="100pt" height="100pt" viewBox="0 0 100 100" version="1.1">
<defs>
<filter id="alpha" filterUnits="objectBoundingBox" x="0%" y="0%" width="100%" height="100%">
  <feColorMatrix type="matrix" in="SourceGraphic" values="0 0 0 0 1 0 0 0 0 1 0 0 0 0 1 0 0 0 1 0"/>
</filter>
<mask id="mask0">
  <g filter="url(#alpha)">
<rect x="0" y="0" width="100" height="100" style="fill:rgb(0%,0%,0%);fill-opacity:0.301961;stroke:none;"/>
  </g>
</mask>
<clipPath id="clip1">
  <rect width="100" height="100"/>
</clipPath>
<g id="surface17733455" clip-path="url(#clip1)">
<path style=" stroke:none;fill-rule:nonzero;fill:rgb(90.588235%,29.803922%,23.529412%);fill-opacity:1;" d="M 50 12.5 C 29.289062 12.5 12.5 29.289062 12.5 50 C 12.5 70.710938 29.289062 87.5 50 87.5 C 70.710938 87.5 87.5 70.710938 87.5 50 C 87.5 29.289062 70.710938 12.5 50 12.5 Z M 50 12.5 "/>
</g>
</defs>
<g id="surface17733450">
<use xlink:href="#surface17733455" mask="url(#mask0)"/>
<path style=" stroke:none;fill-rule:nonzero;fill:rgb(90.588235%,29.803922%,23.529412%);fill-opacity:1;" d="M 50 91.667969 C 27.082031 91.667969 8.332031 72.917969 8.332031 50 C 8.332031 27.082031 27.082031 8.332031 50 8.332031 C 72.917969 8.332031 91.667969 27.082031 91.667969 50 C 91.667969 72.917969 72.917969 91.667969 50 91.667969 Z M 50 16.667969 C 31.667969 16.667969 16.667969 31.667969 16.667969 50 C 16.667969 68.332031 31.667969 83.332031 50 83.332031 C 68.332031 83.332031 83.332031 68.332031 83.332031 50 C 83.332031 31.667969 68.332031 16.667969 50 16.667969 Z M 50 16.667969 "/>
<path style=" stroke:none;fill-rule:nonzero;fill:rgb(90.588235%,29.803922%,23.529412%);fill-opacity:1;" d="M 45.832031 29.167969 L 54.167969 29.167969 L 54.167969 70.832031 L 45.832031 70.832031 Z M 45.832031 29.167969 "/>
<path style=" stroke:none;fill-rule:nonzero;fill:rgb(90.588235%,29.803922%,23.529412%);fill-opacity:1;" d="M 29.167969 45.832031 L 70.832031 45.832031 L 70.832031 54.167969 L 29.167969 54.167969 Z M 29.167969 45.832031 "/>
</g>
</svg>
