<?xml version="1.0" encoding="UTF-8"?>
<svg xmlns="http://www.w3.org/2000/svg" xmlns:xlink="http://www.w3.org/1999/xlink" width="100pt" height="100pt" viewBox="0 0 100 100" version="1.1">
<defs>
<linearGradient id="linear0" gradientUnits="userSpaceOnUse" x1="100.78125" y1="47.97456" x2="100.78125" y2="70.993" gradientTransform="matrix(1.5625,0,0,1.5625,0,0)">
<stop offset="0" style="stop-color:rgb(21.960784%,21.960784%,21.960784%);stop-opacity:1;"/>
<stop offset="1" style="stop-color:rgb(40%,40%,40%);stop-opacity:1;"/>
</linearGradient>
<linearGradient id="linear1" gradientUnits="userSpaceOnUse" x1="86" y1="17.21075" x2="86" y2="152.16625" gradientTransform="matrix(0.581395,0,0,0.581395,0,0)">
<stop offset="0" style="stop-color:rgb(0%,0%,0%);stop-opacity:1;"/>
<stop offset="1" style="stop-color:rgb(18.039216%,18.039216%,18.039216%);stop-opacity:1;"/>
</linearGradient>
<linearGradient id="linear2" gradientUnits="userSpaceOnUse" x1="100.78125" y1="17.21075" x2="100.78125" y2="152.16625" gradientTransform="matrix(0.581395,0,0,0.581395,0,0)">
<stop offset="0" style="stop-color:rgb(0%,0%,0%);stop-opacity:1;"/>
<stop offset="1" style="stop-color:rgb(18.039216%,18.039216%,18.039216%);stop-opacity:1;"/>
</linearGradient>
<linearGradient id="linear3" gradientUnits="userSpaceOnUse" x1="61.8125" y1="17.21075" x2="61.8125" y2="152.16625" gradientTransform="matrix(0.581395,0,0,0.581395,0,0)">
<stop offset="0" style="stop-color:rgb(0%,0%,0%);stop-opacity:1;"/>
<stop offset="1" style="stop-color:rgb(18.039216%,18.039216%,18.039216%);stop-opacity:1;"/>
</linearGradient>
<linearGradient id="linear4" gradientUnits="userSpaceOnUse" x1="86" y1="17.21075" x2="86" y2="152.16625" gradientTransform="matrix(0.581395,0,0,0.581395,0,0)">
<stop offset="0" style="stop-color:rgb(0%,0%,0%);stop-opacity:1;"/>
<stop offset="1" style="stop-color:rgb(18.039216%,18.039216%,18.039216%);stop-opacity:1;"/>
</linearGradient>
<linearGradient id="linear5" gradientUnits="userSpaceOnUse" x1="86" y1="92.40431" x2="86" y2="115.32869" gradientTransform="matrix(1.5625,0,0,1.5625,0,0)">
<stop offset="0" style="stop-color:rgb(21.960784%,21.960784%,21.960784%);stop-opacity:1;"/>
<stop offset="1" style="stop-color:rgb(40%,40%,40%);stop-opacity:1;"/>
</linearGradient>
</defs>
<g id="surface17280910">
<path style=" stroke:none;fill-rule:nonzero;fill:url(#linear0);" d="M 64.117188 36.71875 C 64.117188 39.769531 61.644531 42.242188 58.59375 42.242188 C 55.542969 42.242188 53.070312 39.769531 53.070312 36.71875 C 53.070312 33.667969 55.542969 31.195312 58.59375 31.195312 C 61.644531 31.195312 64.117188 33.667969 64.117188 36.71875 Z M 64.117188 36.71875 "/>
<path style=" stroke:none;fill-rule:nonzero;fill:url(#linear1);" d="M 90.5625 49.222656 C 90.199219 46.992188 88.136719 45.3125 85.769531 45.3125 C 83.636719 45.3125 81.703125 44.203125 80.617188 42.503906 L 80.691406 42.472656 C 83.082031 41.492188 84.230469 38.75 83.25 36.359375 C 82.265625 33.96875 79.519531 32.824219 77.132812 33.800781 L 77.011719 33.851562 C 76.492188 31.8125 77.0625 29.570312 78.609375 28.023438 C 80.285156 26.34375 80.550781 23.699219 79.230469 21.867188 C 78.417969 20.738281 77.164062 20.027344 75.792969 19.917969 C 74.421875 19.820312 73.070312 20.300781 72.105469 21.265625 L 71.980469 21.390625 C 70.59375 22.78125 68.644531 23.382812 66.789062 23.125 C 67.253906 22 67.273438 20.761719 66.824219 19.625 C 66.367188 18.460938 65.480469 17.542969 64.332031 17.046875 C 63.183594 16.546875 61.914062 16.523438 60.746094 16.984375 C 59.582031 17.441406 58.664062 18.324219 58.164062 19.476562 L 58.0625 19.714844 C 56.039062 18.730469 54.6875 16.59375 54.6875 14.230469 C 54.6875 11.859375 53.007812 9.800781 50.777344 9.4375 C 49.402344 9.214844 48.015625 9.597656 46.964844 10.492188 C 45.914062 11.382812 45.3125 12.683594 45.3125 14.0625 L 45.3125 14.230469 C 45.3125 16.617188 43.933594 18.765625 41.882812 19.734375 L 41.773438 19.488281 C 40.738281 17.117188 37.96875 16.035156 35.601562 17.070312 C 34.453125 17.570312 33.570312 18.492188 33.113281 19.65625 C 32.671875 20.785156 32.691406 22.011719 33.148438 23.128906 C 31.3125 23.363281 29.390625 22.761719 28.019531 21.390625 C 26.34375 19.71875 23.695312 19.449219 21.867188 20.769531 C 20.738281 21.582031 20.027344 22.835938 19.914062 24.207031 C 19.804688 25.582031 20.300781 26.929688 21.265625 27.894531 L 21.390625 28.019531 C 22.777344 29.40625 23.382812 31.355469 23.125 33.210938 C 21.996094 32.742188 20.757812 32.726562 19.625 33.175781 C 18.460938 33.632812 17.542969 34.519531 17.042969 35.667969 C 16.546875 36.816406 16.523438 38.089844 16.980469 39.253906 C 17.4375 40.417969 18.324219 41.335938 19.472656 41.835938 L 19.710938 41.9375 C 18.730469 43.960938 16.59375 45.3125 14.230469 45.3125 C 11.859375 45.3125 9.800781 46.992188 9.4375 49.222656 C 9.214844 50.597656 9.597656 51.984375 10.492188 53.035156 C 11.382812 54.082031 12.683594 54.6875 14.0625 54.6875 L 14.230469 54.6875 C 16.363281 54.6875 18.296875 55.796875 19.382812 57.496094 L 19.308594 57.527344 C 16.917969 58.507812 15.769531 61.25 16.75 63.640625 C 17.496094 65.453125 19.25 66.546875 21.09375 66.546875 C 21.6875 66.546875 22.289062 66.4375 22.867188 66.195312 L 22.988281 66.148438 C 23.507812 68.183594 22.9375 70.429688 21.390625 71.976562 C 19.714844 73.652344 19.449219 76.300781 20.769531 78.128906 C 21.582031 79.257812 22.835938 79.96875 24.207031 80.082031 C 25.570312 80.1875 26.929688 79.699219 27.894531 78.730469 L 28.019531 78.605469 C 29.40625 77.21875 31.351562 76.613281 33.210938 76.875 C 32.746094 78 32.726562 79.234375 33.175781 80.375 C 33.632812 81.539062 34.519531 82.453125 35.667969 82.953125 C 36.269531 83.214844 36.902344 83.34375 37.535156 83.34375 C 38.117188 83.34375 38.695312 83.234375 39.253906 83.015625 C 40.417969 82.558594 41.335938 81.671875 41.835938 80.523438 L 41.9375 80.285156 C 43.960938 81.269531 45.3125 83.40625 45.3125 85.769531 C 45.3125 88.140625 46.992188 90.199219 49.222656 90.5625 C 49.480469 90.601562 49.738281 90.625 49.992188 90.625 C 51.105469 90.625 52.179688 90.234375 53.035156 89.507812 C 54.085938 88.617188 54.6875 87.316406 54.6875 85.9375 L 54.6875 85.769531 C 54.6875 83.382812 56.066406 81.234375 58.117188 80.265625 L 58.226562 80.511719 C 58.996094 82.269531 60.722656 83.320312 62.527344 83.320312 C 63.152344 83.320312 63.789062 83.195312 64.398438 82.929688 C 65.546875 82.429688 66.429688 81.507812 66.886719 80.34375 C 67.328125 79.214844 67.308594 77.988281 66.851562 76.875 C 68.6875 76.636719 70.605469 77.238281 71.976562 78.613281 C 73.65625 80.285156 76.304688 80.554688 78.132812 79.230469 C 79.261719 78.417969 79.972656 77.167969 80.082031 75.792969 C 80.195312 74.421875 79.699219 73.074219 78.734375 72.109375 L 78.609375 71.980469 C 77.21875 70.59375 76.617188 68.648438 76.875 66.792969 C 77.449219 67.027344 78.050781 67.15625 78.65625 67.15625 C 79.234375 67.15625 79.816406 67.046875 80.375 66.828125 C 81.539062 66.367188 82.457031 65.484375 82.953125 64.332031 C 83.453125 63.1875 83.476562 61.910156 83.015625 60.746094 C 82.558594 59.582031 81.675781 58.664062 80.523438 58.167969 L 80.285156 58.0625 C 81.269531 56.039062 83.40625 54.6875 85.769531 54.6875 L 85.9375 54.6875 C 87.316406 54.6875 88.617188 54.085938 89.507812 53.035156 C 90.402344 51.984375 90.785156 50.597656 90.5625 49.222656 Z M 80.355469 37.542969 C 80.683594 38.339844 80.300781 39.257812 79.503906 39.582031 L 79.429688 39.613281 C 79.082031 38.628906 78.6875 37.667969 78.242188 36.722656 L 78.320312 36.691406 C 79.109375 36.367188 80.03125 36.746094 80.355469 37.542969 Z M 61.890625 19.890625 C 62.074219 19.816406 62.269531 19.78125 62.460938 19.78125 C 62.671875 19.78125 62.886719 19.824219 63.085938 19.910156 C 63.46875 20.078125 63.761719 20.382812 63.914062 20.773438 C 64.070312 21.160156 64.0625 21.585938 63.894531 21.96875 L 63.863281 22.039062 C 62.929688 21.578125 61.976562 21.160156 61 20.789062 L 61.027344 20.722656 C 61.195312 20.335938 61.5 20.039062 61.890625 19.890625 Z M 36.851562 19.9375 C 37.054688 19.847656 37.269531 19.804688 37.476562 19.804688 C 38.078125 19.804688 38.65625 20.15625 38.910156 20.742188 L 38.941406 20.808594 C 37.964844 21.179688 37.011719 21.597656 36.078125 22.066406 L 36.046875 21.996094 C 35.703125 21.203125 36.0625 20.28125 36.851562 19.9375 Z M 19.910156 36.914062 C 20.074219 36.53125 20.382812 36.234375 20.769531 36.082031 C 20.957031 36.007812 21.148438 35.976562 21.34375 35.976562 C 21.554688 35.976562 21.765625 36.015625 21.964844 36.105469 L 22.039062 36.136719 C 21.574219 37.070312 21.15625 38.023438 20.789062 39 L 20.71875 38.96875 C 20.335938 38.804688 20.039062 38.496094 19.890625 38.109375 C 19.734375 37.722656 19.742188 37.296875 19.910156 36.914062 Z M 19.644531 62.457031 C 19.316406 61.660156 19.699219 60.742188 20.496094 60.417969 L 20.570312 60.386719 C 20.917969 61.371094 21.3125 62.332031 21.757812 63.277344 L 21.679688 63.308594 C 20.894531 63.636719 19.972656 63.253906 19.644531 62.457031 Z M 38.109375 80.109375 C 37.722656 80.261719 37.296875 80.253906 36.914062 80.089844 C 36.53125 79.921875 36.234375 79.617188 36.082031 79.226562 C 35.929688 78.839844 35.9375 78.414062 36.105469 78.03125 L 36.136719 77.960938 C 37.070312 78.421875 38.023438 78.839844 39 79.210938 L 38.96875 79.28125 C 38.804688 79.664062 38.5 79.960938 38.109375 80.109375 Z M 63.148438 80.0625 C 62.359375 80.40625 61.433594 80.046875 61.089844 79.257812 L 61.058594 79.191406 C 62.035156 78.820312 62.988281 78.402344 63.921875 77.933594 L 63.953125 78.003906 C 64.296875 78.796875 63.9375 79.71875 63.148438 80.0625 Z M 80.089844 63.085938 C 79.925781 63.46875 79.617188 63.765625 79.230469 63.917969 C 78.839844 64.070312 78.414062 64.0625 78.03125 63.894531 L 77.960938 63.863281 C 78.425781 62.929688 78.84375 61.976562 79.210938 61 L 79.28125 61.03125 C 79.660156 61.195312 79.957031 61.5 80.109375 61.890625 C 80.265625 62.277344 80.257812 62.703125 80.089844 63.085938 Z M 87.128906 51.011719 C 86.832031 51.359375 86.398438 51.5625 85.9375 51.5625 L 85.769531 51.5625 C 81.714844 51.5625 78.09375 54.21875 76.960938 58.019531 C 76.414062 59.855469 75.675781 61.640625 74.765625 63.328125 C 72.859375 66.855469 73.53125 71.320312 76.390625 74.179688 L 76.515625 74.308594 C 76.84375 74.632812 77.007812 75.082031 76.96875 75.539062 C 76.933594 76.003906 76.695312 76.414062 76.304688 76.695312 C 75.714844 77.125 74.78125 76.992188 74.1875 76.398438 C 71.324219 73.53125 66.859375 72.855469 63.324219 74.765625 C 61.640625 75.675781 59.855469 76.414062 58.019531 76.960938 C 54.21875 78.09375 51.5625 81.714844 51.5625 85.769531 L 51.5625 85.9375 C 51.5625 86.398438 51.359375 86.832031 51.011719 87.128906 C 50.652344 87.429688 50.195312 87.554688 49.726562 87.476562 C 49.003906 87.359375 48.4375 86.609375 48.4375 85.769531 C 48.4375 81.714844 45.78125 78.09375 41.980469 76.960938 C 40.144531 76.414062 38.359375 75.675781 36.671875 74.765625 C 35.332031 74.039062 33.851562 73.6875 32.378906 73.6875 C 29.976562 73.6875 27.589844 74.621094 25.820312 76.390625 L 25.691406 76.515625 C 25.367188 76.84375 24.914062 77.015625 24.460938 76.96875 C 23.996094 76.933594 23.585938 76.695312 23.304688 76.304688 C 22.878906 75.710938 23.007812 74.78125 23.601562 74.1875 C 26.46875 71.320312 27.140625 66.855469 25.234375 63.324219 C 24.324219 61.640625 23.585938 59.855469 23.039062 58.019531 C 21.90625 54.21875 18.285156 51.5625 14.230469 51.5625 L 14.0625 51.5625 C 13.601562 51.5625 13.167969 51.359375 12.871094 51.011719 C 12.570312 50.65625 12.445312 50.199219 12.523438 49.726562 C 12.640625 49.003906 13.390625 48.4375 14.230469 48.4375 C 18.285156 48.4375 21.90625 45.78125 23.039062 41.980469 C 23.585938 40.144531 24.324219 38.359375 25.234375 36.671875 C 27.140625 33.144531 26.46875 28.679688 23.609375 25.820312 L 23.484375 25.691406 C 23.15625 25.367188 22.992188 24.917969 23.03125 24.460938 C 23.066406 23.996094 23.304688 23.585938 23.695312 23.304688 C 24.285156 22.878906 25.21875 23.007812 25.8125 23.601562 C 28.675781 26.46875 33.140625 27.144531 36.675781 25.234375 C 38.359375 24.324219 40.144531 23.585938 41.980469 23.039062 C 45.78125 21.90625 48.4375 18.285156 48.4375 14.230469 L 48.4375 14.0625 C 48.4375 13.601562 48.640625 13.167969 48.988281 12.871094 C 49.34375 12.570312 49.800781 12.441406 50.273438 12.523438 C 50.996094 12.640625 51.5625 13.390625 51.5625 14.230469 C 51.5625 18.285156 54.21875 21.90625 58.019531 23.039062 C 59.855469 23.585938 61.640625 24.324219 63.328125 25.234375 C 66.855469 27.140625 71.324219 26.46875 74.179688 23.609375 L 74.308594 23.484375 C 74.632812 23.15625 75.085938 22.984375 75.539062 23.03125 C 76.003906 23.066406 76.414062 23.304688 76.695312 23.695312 C 77.121094 24.289062 76.992188 25.21875 76.398438 25.8125 C 73.53125 28.679688 72.859375 33.144531 74.765625 36.675781 C 75.675781 38.359375 76.414062 40.144531 76.960938 41.980469 C 78.09375 45.78125 81.714844 48.4375 85.769531 48.4375 C 86.609375 48.4375 87.359375 49.003906 87.476562 49.726562 C 87.554688 50.199219 87.429688 50.65625 87.128906 51.011719 Z M 87.128906 51.011719 "/>
<path style=" stroke:none;fill-rule:nonzero;fill:url(#linear2);" d="M 58.59375 29.632812 C 54.6875 29.632812 51.507812 32.8125 51.507812 36.71875 C 51.507812 40.625 54.6875 43.804688 58.59375 43.804688 C 62.5 43.804688 65.679688 40.625 65.679688 36.71875 C 65.679688 32.8125 62.5 29.632812 58.59375 29.632812 Z M 58.59375 40.679688 C 56.410156 40.679688 54.632812 38.902344 54.632812 36.71875 C 54.632812 34.535156 56.410156 32.757812 58.59375 32.757812 C 60.777344 32.757812 62.554688 34.535156 62.554688 36.71875 C 62.554688 38.902344 60.777344 40.679688 58.59375 40.679688 Z M 58.59375 40.679688 "/>
<path style=" stroke:none;fill-rule:nonzero;fill:url(#linear3);" d="M 40.625 40.625 C 40.625 38.039062 38.523438 35.9375 35.9375 35.9375 C 33.351562 35.9375 31.25 38.039062 31.25 40.625 C 31.25 43.210938 33.351562 45.3125 35.9375 45.3125 C 38.523438 45.3125 40.625 43.210938 40.625 40.625 Z M 35.9375 42.1875 C 35.074219 42.1875 34.375 41.488281 34.375 40.625 C 34.375 39.761719 35.074219 39.0625 35.9375 39.0625 C 36.800781 39.0625 37.5 39.761719 37.5 40.625 C 37.5 41.488281 36.800781 42.1875 35.9375 42.1875 Z M 35.9375 42.1875 "/>
<path style=" stroke:none;fill-rule:nonzero;fill:url(#linear4);" d="M 50 48.4375 C 43.109375 48.4375 37.5 54.046875 37.5 60.9375 C 37.5 67.828125 43.109375 73.4375 50 73.4375 C 56.890625 73.4375 62.5 67.828125 62.5 60.9375 C 62.5 54.046875 56.890625 48.4375 50 48.4375 Z M 50 70.3125 C 44.828125 70.3125 40.625 66.109375 40.625 60.9375 C 40.625 55.765625 44.828125 51.5625 50 51.5625 C 55.171875 51.5625 59.375 55.765625 59.375 60.9375 C 59.375 66.109375 55.171875 70.3125 50 70.3125 Z M 50 70.3125 "/>
<path style=" stroke:none;fill-rule:nonzero;fill:url(#linear5);" d="M 56.25 60.9375 C 56.25 64.390625 53.453125 67.1875 50 67.1875 C 46.546875 67.1875 43.75 64.390625 43.75 60.9375 C 43.75 57.484375 46.546875 54.6875 50 54.6875 C 53.453125 54.6875 56.25 57.484375 56.25 60.9375 Z M 56.25 60.9375 "/>
</g>
</svg>
