<?xml version="1.0" encoding="UTF-8"?>
<svg xmlns="http://www.w3.org/2000/svg" xmlns:xlink="http://www.w3.org/1999/xlink" width="100pt" height="100pt" viewBox="0 0 100 100" version="1.1">
<g id="surface17281956">
<path style=" stroke:none;fill-rule:nonzero;fill:rgb(20%,20%,20%);fill-opacity:1;" d="M 49.976562 6.230469 C 49.902344 6.230469 49.828125 6.238281 49.753906 6.25 L 45.3125 6.25 C 44.75 6.242188 44.226562 6.539062 43.941406 7.023438 C 43.65625 7.511719 43.65625 8.113281 43.941406 8.601562 C 44.226562 9.085938 44.75 9.382812 45.3125 9.375 L 48.4375 9.375 L 48.4375 14.101562 C 44.355469 14.277344 40.445312 15.140625 36.824219 16.570312 L 34.902344 12.25 L 37.757812 10.980469 C 38.460938 10.679688 38.84375 9.921875 38.667969 9.179688 C 38.488281 8.441406 37.804688 7.933594 37.046875 7.984375 C 36.851562 7.996094 36.664062 8.042969 36.488281 8.125 L 32.445312 9.925781 C 32.28125 9.96875 32.121094 10.039062 31.980469 10.136719 L 27.921875 11.9375 C 27.390625 12.152344 27.019531 12.636719 26.953125 13.207031 C 26.886719 13.773438 27.132812 14.335938 27.601562 14.664062 C 28.070312 14.996094 28.679688 15.042969 29.191406 14.792969 L 32.046875 13.523438 L 33.972656 17.84375 C 30.394531 19.632812 27.152344 21.996094 24.375 24.824219 L 20.855469 21.65625 L 22.945312 19.332031 C 23.363281 18.878906 23.480469 18.222656 23.238281 17.65625 C 22.996094 17.089844 22.441406 16.71875 21.824219 16.707031 C 21.367188 16.699219 20.925781 16.894531 20.625 17.242188 L 17.683594 20.515625 L 17.667969 20.523438 C 17.527344 20.632812 17.40625 20.769531 17.308594 20.921875 L 14.351562 24.210938 C 13.964844 24.621094 13.832031 25.210938 14.003906 25.75 C 14.175781 26.289062 14.625 26.695312 15.179688 26.808594 C 15.730469 26.921875 16.304688 26.726562 16.675781 26.300781 L 18.765625 23.976562 L 22.28125 27.140625 C 19.765625 30.1875 17.746094 33.652344 16.335938 37.417969 L 11.847656 35.957031 L 12.8125 32.988281 C 12.972656 32.507812 12.894531 31.984375 12.601562 31.574219 C 12.308594 31.164062 11.835938 30.921875 11.332031 30.921875 C 10.648438 30.921875 10.042969 31.367188 9.84375 32.023438 L 8.476562 36.230469 C 8.394531 36.382812 8.339844 36.550781 8.3125 36.722656 L 6.941406 40.9375 C 6.761719 41.472656 6.878906 42.0625 7.253906 42.484375 C 7.628906 42.90625 8.203125 43.089844 8.753906 42.972656 C 9.304688 42.851562 9.75 42.441406 9.914062 41.902344 L 10.878906 38.929688 L 15.375 40.394531 C 14.527344 43.453125 14.0625 46.671875 14.0625 50 C 14.0625 50.738281 14.089844 51.46875 14.136719 52.195312 L 9.433594 52.691406 L 9.105469 49.585938 C 9.03125 48.769531 8.339844 48.148438 7.519531 48.164062 C 7.078125 48.171875 6.660156 48.367188 6.371094 48.699219 C 6.082031 49.035156 5.945312 49.472656 6 49.910156 L 6.464844 54.320312 C 6.453125 54.492188 6.472656 54.660156 6.515625 54.824219 L 6.980469 59.234375 C 7.019531 59.804688 7.371094 60.304688 7.886719 60.539062 C 8.40625 60.777344 9.011719 60.714844 9.46875 60.375 C 9.925781 60.035156 10.164062 59.472656 10.085938 58.90625 L 9.757812 55.800781 L 14.457031 55.308594 C 15.050781 59.324219 16.320312 63.125 18.132812 66.59375 L 14.035156 68.960938 L 12.472656 66.253906 C 12.1875 65.738281 11.636719 65.429688 11.046875 65.453125 C 10.496094 65.476562 10 65.785156 9.738281 66.273438 C 9.472656 66.757812 9.488281 67.34375 9.769531 67.816406 L 11.980469 71.648438 C 12.042969 71.8125 12.128906 71.960938 12.242188 72.09375 L 14.457031 75.933594 C 14.722656 76.441406 15.246094 76.761719 15.820312 76.769531 C 16.390625 76.777344 16.921875 76.46875 17.203125 75.96875 C 17.484375 75.46875 17.464844 74.855469 17.160156 74.371094 L 15.597656 71.664062 L 19.699219 69.296875 C 21.84375 72.65625 24.535156 75.636719 27.644531 78.113281 L 24.855469 81.949219 L 22.328125 80.113281 C 21.878906 79.765625 21.277344 79.691406 20.753906 79.917969 C 20.234375 80.140625 19.875 80.632812 19.820312 81.199219 C 19.765625 81.765625 20.023438 82.316406 20.492188 82.636719 L 24.082031 85.246094 C 24.199219 85.363281 24.335938 85.460938 24.484375 85.539062 L 28.074219 88.148438 C 28.527344 88.496094 29.128906 88.570312 29.652344 88.34375 C 30.171875 88.121094 30.53125 87.628906 30.585938 87.0625 C 30.640625 86.496094 30.382812 85.945312 29.914062 85.625 L 27.386719 83.785156 L 30.167969 79.957031 C 33.445312 82.132812 37.09375 83.789062 41.003906 84.800781 L 40.023438 89.414062 L 36.96875 88.761719 C 36.414062 88.625 35.828125 88.796875 35.441406 89.21875 C 35.050781 89.640625 34.925781 90.238281 35.109375 90.78125 C 35.289062 91.320312 35.753906 91.71875 36.320312 91.816406 L 40.640625 92.738281 C 40.804688 92.800781 40.980469 92.839844 41.15625 92.847656 L 45.488281 93.769531 C 46.042969 93.90625 46.628906 93.734375 47.019531 93.3125 C 47.40625 92.894531 47.535156 92.292969 47.351562 91.753906 C 47.167969 91.210938 46.703125 90.8125 46.140625 90.714844 L 43.078125 90.0625 L 44.0625 85.441406 C 45.996094 85.761719 47.976562 85.9375 50 85.9375 C 52.023438 85.9375 54.003906 85.761719 55.9375 85.441406 L 56.921875 90.0625 L 53.859375 90.714844 C 53.296875 90.8125 52.832031 91.210938 52.648438 91.753906 C 52.464844 92.292969 52.59375 92.894531 52.980469 93.3125 C 53.371094 93.734375 53.957031 93.90625 54.511719 93.769531 L 58.839844 92.847656 C 59.015625 92.839844 59.1875 92.804688 59.347656 92.738281 L 63.679688 91.816406 C 64.246094 91.71875 64.710938 91.320312 64.890625 90.78125 C 65.074219 90.238281 64.949219 89.640625 64.558594 89.21875 C 64.171875 88.796875 63.585938 88.625 63.03125 88.761719 L 59.976562 89.414062 L 58.996094 84.800781 C 62.90625 83.789062 66.554688 82.132812 69.832031 79.957031 L 72.613281 83.785156 L 70.085938 85.625 C 69.617188 85.945312 69.359375 86.496094 69.414062 87.0625 C 69.46875 87.628906 69.828125 88.121094 70.347656 88.34375 C 70.871094 88.570312 71.472656 88.496094 71.925781 88.148438 L 75.515625 85.539062 C 75.664062 85.464844 75.796875 85.367188 75.914062 85.25 L 79.507812 82.636719 C 79.976562 82.316406 80.234375 81.765625 80.179688 81.199219 C 80.125 80.632812 79.765625 80.140625 79.246094 79.917969 C 78.722656 79.691406 78.121094 79.765625 77.671875 80.113281 L 75.144531 81.949219 L 72.355469 78.113281 C 75.464844 75.636719 78.15625 72.65625 80.300781 69.296875 L 84.402344 71.664062 L 82.839844 74.371094 C 82.535156 74.855469 82.515625 75.46875 82.796875 75.96875 C 83.078125 76.46875 83.609375 76.777344 84.179688 76.769531 C 84.753906 76.761719 85.277344 76.441406 85.542969 75.933594 L 87.757812 72.101562 C 87.867188 71.96875 87.953125 71.816406 88.015625 71.65625 L 90.230469 67.816406 C 90.515625 67.335938 90.523438 66.738281 90.25 66.25 C 89.976562 65.761719 89.464844 65.460938 88.902344 65.453125 C 88.332031 65.449219 87.804688 65.757812 87.527344 66.253906 L 85.964844 68.960938 L 81.867188 66.59375 C 83.679688 63.125 84.949219 59.324219 85.542969 55.308594 L 90.242188 55.800781 L 89.914062 58.90625 C 89.835938 59.472656 90.074219 60.035156 90.53125 60.375 C 90.988281 60.714844 91.59375 60.777344 92.113281 60.539062 C 92.628906 60.304688 92.980469 59.804688 93.019531 59.234375 L 93.484375 54.820312 C 93.527344 54.664062 93.546875 54.496094 93.535156 54.332031 L 94 49.910156 C 94.054688 49.464844 93.914062 49.015625 93.613281 48.683594 C 93.3125 48.347656 92.882812 48.15625 92.429688 48.164062 C 91.628906 48.171875 90.964844 48.785156 90.894531 49.585938 L 90.566406 52.691406 L 85.863281 52.195312 C 85.910156 51.46875 85.9375 50.738281 85.9375 50 C 85.9375 46.671875 85.472656 43.453125 84.625 40.394531 L 89.121094 38.929688 L 90.085938 41.902344 C 90.25 42.441406 90.695312 42.851562 91.246094 42.972656 C 91.796875 43.089844 92.371094 42.90625 92.746094 42.484375 C 93.121094 42.0625 93.238281 41.472656 93.058594 40.9375 L 91.6875 36.726562 C 91.660156 36.554688 91.609375 36.386719 91.527344 36.234375 L 90.15625 32.023438 C 89.953125 31.351562 89.320312 30.898438 88.621094 30.921875 C 88.125 30.9375 87.664062 31.183594 87.382812 31.59375 C 87.101562 32 87.027344 32.515625 87.1875 32.988281 L 88.152344 35.957031 L 83.664062 37.417969 C 82.253906 33.652344 80.234375 30.1875 77.71875 27.140625 L 81.234375 23.976562 L 83.324219 26.300781 C 83.695312 26.726562 84.269531 26.921875 84.820312 26.808594 C 85.375 26.695312 85.824219 26.289062 85.996094 25.75 C 86.167969 25.210938 86.035156 24.621094 85.648438 24.210938 L 82.695312 20.925781 C 82.597656 20.777344 82.480469 20.648438 82.34375 20.539062 L 79.375 17.242188 C 79.0625 16.882812 78.601562 16.6875 78.125 16.710938 C 77.519531 16.742188 76.984375 17.121094 76.753906 17.679688 C 76.523438 18.242188 76.640625 18.886719 77.054688 19.332031 L 79.144531 21.65625 L 75.625 24.824219 C 72.847656 21.996094 69.605469 19.632812 66.027344 17.84375 L 67.953125 13.523438 L 70.808594 14.792969 C 71.320312 15.042969 71.929688 14.996094 72.398438 14.664062 C 72.867188 14.335938 73.113281 13.773438 73.046875 13.207031 C 72.980469 12.636719 72.609375 12.152344 72.078125 11.9375 L 68.027344 10.136719 C 67.882812 10.042969 67.726562 9.972656 67.5625 9.929688 L 63.511719 8.125 C 63.324219 8.039062 63.117188 7.992188 62.910156 7.984375 C 62.160156 7.960938 61.496094 8.472656 61.335938 9.207031 C 61.171875 9.9375 61.550781 10.683594 62.242188 10.980469 L 65.097656 12.25 L 63.175781 16.570312 C 59.554688 15.140625 55.644531 14.277344 51.5625 14.101562 L 51.5625 9.375 L 54.6875 9.375 C 55.25 9.382812 55.773438 9.085938 56.058594 8.601562 C 56.34375 8.113281 56.34375 7.511719 56.058594 7.023438 C 55.773438 6.539062 55.25 6.242188 54.6875 6.25 L 50.261719 6.25 C 50.167969 6.234375 50.070312 6.226562 49.976562 6.230469 Z M 49.785156 17.195312 C 49.929688 17.214844 50.074219 17.214844 50.214844 17.195312 C 54.738281 17.222656 59.042969 18.167969 62.953125 19.84375 C 63.152344 20.015625 63.398438 20.132812 63.65625 20.183594 C 67.710938 22.042969 71.308594 24.695312 74.265625 27.953125 C 74.273438 27.960938 74.28125 27.96875 74.285156 27.976562 C 74.328125 28.027344 74.375 28.078125 74.421875 28.125 C 77.410156 31.457031 79.742188 35.386719 81.171875 39.738281 C 81.191406 39.824219 81.21875 39.910156 81.257812 39.988281 C 82.261719 43.144531 82.8125 46.507812 82.8125 50 C 82.8125 51.121094 82.757812 52.230469 82.648438 53.324219 C 82.648438 53.335938 82.644531 53.347656 82.644531 53.355469 C 82.636719 53.40625 82.628906 53.453125 82.625 53.503906 C 82.148438 58.03125 80.734375 62.269531 78.609375 66.054688 C 78.433594 66.230469 78.304688 66.445312 78.230469 66.679688 C 75.9375 70.554688 72.878906 73.90625 69.253906 76.542969 C 65.667969 79.144531 61.550781 81.0625 57.070312 82.042969 C 56.890625 82.050781 56.714844 82.089844 56.546875 82.160156 C 54.429688 82.585938 52.242188 82.8125 50 82.8125 C 47.761719 82.8125 45.574219 82.589844 43.460938 82.164062 C 43.457031 82.164062 43.457031 82.160156 43.457031 82.160156 C 43.289062 82.089844 43.113281 82.050781 42.933594 82.042969 C 38.433594 81.058594 34.304688 79.132812 30.710938 76.511719 C 27.101562 73.886719 24.058594 70.546875 21.773438 66.691406 C 21.699219 66.453125 21.566406 66.234375 21.390625 66.058594 C 19.261719 62.269531 17.851562 58.023438 17.375 53.496094 C 17.371094 53.4375 17.363281 53.382812 17.351562 53.328125 C 17.242188 52.234375 17.1875 51.125 17.1875 50 C 17.1875 46.511719 17.734375 43.148438 18.742188 39.996094 C 18.773438 39.921875 18.800781 39.84375 18.820312 39.765625 C 20.242188 35.417969 22.566406 31.496094 25.539062 28.164062 C 25.546875 28.15625 25.554688 28.148438 25.566406 28.140625 C 25.617188 28.089844 25.664062 28.039062 25.707031 27.984375 C 28.671875 24.714844 32.277344 22.046875 36.339844 20.183594 C 36.601562 20.132812 36.847656 20.015625 37.050781 19.84375 C 40.960938 18.167969 45.261719 17.222656 49.785156 17.195312 Z M 64.3125 23.671875 C 63.742188 23.667969 63.210938 23.972656 62.933594 24.472656 L 61.144531 27.570312 C 60.714844 28.316406 60.96875 29.273438 61.71875 29.703125 C 62.464844 30.136719 63.421875 29.878906 63.851562 29.132812 L 65.640625 26.039062 C 65.929688 25.558594 65.9375 24.957031 65.660156 24.46875 C 65.386719 23.980469 64.871094 23.675781 64.3125 23.671875 Z M 35.640625 23.675781 C 35.089844 23.695312 34.589844 24.007812 34.328125 24.492188 C 34.066406 24.976562 34.078125 25.5625 34.359375 26.039062 L 36.148438 29.132812 C 36.578125 29.878906 37.535156 30.136719 38.28125 29.703125 C 39.03125 29.273438 39.285156 28.316406 38.855469 27.570312 L 37.066406 24.472656 C 36.777344 23.960938 36.226562 23.652344 35.640625 23.675781 Z M 50 25 C 48.046875 25 46.382812 25.789062 45.316406 26.988281 C 44.246094 28.191406 43.75 29.730469 43.75 31.25 C 43.75 32.769531 44.246094 34.308594 45.316406 35.511719 C 46.382812 36.710938 48.046875 37.5 50 37.5 C 51.953125 37.5 53.617188 36.710938 54.683594 35.511719 C 55.753906 34.308594 56.25 32.769531 56.25 31.25 C 56.25 29.730469 55.753906 28.191406 54.683594 26.988281 C 53.617188 25.789062 51.953125 25 50 25 Z M 50 28.125 C 51.171875 28.125 51.851562 28.507812 52.347656 29.066406 C 52.839844 29.621094 53.125 30.425781 53.125 31.25 C 53.125 32.074219 52.839844 32.878906 52.347656 33.433594 C 51.851562 33.992188 51.171875 34.375 50 34.375 C 48.828125 34.375 48.148438 33.992188 47.652344 33.433594 C 47.160156 32.878906 46.875 32.074219 46.875 31.25 C 46.875 30.425781 47.160156 29.621094 47.652344 29.066406 C 48.148438 28.507812 48.828125 28.125 50 28.125 Z M 34.375 34.375 C 32.421875 34.375 30.757812 35.164062 29.691406 36.363281 C 28.621094 37.566406 28.125 39.105469 28.125 40.625 C 28.125 42.144531 28.621094 43.683594 29.691406 44.886719 C 30.757812 46.085938 32.421875 46.875 34.375 46.875 C 36.328125 46.875 37.992188 46.085938 39.058594 44.886719 C 40.128906 43.683594 40.625 42.144531 40.625 40.625 C 40.625 39.105469 40.128906 37.566406 39.058594 36.363281 C 37.992188 35.164062 36.328125 34.375 34.375 34.375 Z M 65.625 34.375 C 63.671875 34.375 62.007812 35.164062 60.941406 36.363281 C 59.871094 37.566406 59.375 39.105469 59.375 40.625 C 59.375 42.144531 59.871094 43.683594 60.941406 44.886719 C 62.007812 46.085938 63.671875 46.875 65.625 46.875 C 67.578125 46.875 69.242188 46.085938 70.308594 44.886719 C 71.378906 43.683594 71.875 42.144531 71.875 40.625 C 71.875 39.105469 71.378906 37.566406 70.308594 36.363281 C 69.242188 35.164062 67.578125 34.375 65.625 34.375 Z M 34.375 37.5 C 35.546875 37.5 36.226562 37.882812 36.722656 38.441406 C 37.214844 38.996094 37.5 39.800781 37.5 40.625 C 37.5 41.449219 37.214844 42.253906 36.722656 42.808594 C 36.226562 43.367188 35.546875 43.75 34.375 43.75 C 33.203125 43.75 32.523438 43.367188 32.027344 42.808594 C 31.535156 42.253906 31.25 41.449219 31.25 40.625 C 31.25 39.800781 31.535156 38.996094 32.027344 38.441406 C 32.523438 37.882812 33.203125 37.5 34.375 37.5 Z M 65.625 37.5 C 66.796875 37.5 67.476562 37.882812 67.972656 38.441406 C 68.464844 38.996094 68.75 39.800781 68.75 40.625 C 68.75 41.449219 68.464844 42.253906 67.972656 42.808594 C 67.476562 43.367188 66.796875 43.75 65.625 43.75 C 64.453125 43.75 63.773438 43.367188 63.277344 42.808594 C 62.785156 42.253906 62.5 41.449219 62.5 40.625 C 62.5 39.800781 62.785156 38.996094 63.277344 38.441406 C 63.773438 37.882812 64.453125 37.5 65.625 37.5 Z M 50 43.75 C 48.046875 43.75 46.382812 44.539062 45.316406 45.738281 C 44.246094 46.941406 43.75 48.480469 43.75 50 C 43.75 51.519531 44.246094 53.058594 45.316406 54.261719 C 46.382812 55.460938 48.046875 56.25 50 56.25 C 51.953125 56.25 53.617188 55.460938 54.683594 54.261719 C 55.753906 53.058594 56.25 51.519531 56.25 50 C 56.25 48.480469 55.753906 46.941406 54.683594 45.738281 C 53.617188 44.539062 51.953125 43.75 50 43.75 Z M 50 46.875 C 51.171875 46.875 51.851562 47.257812 52.347656 47.816406 C 52.839844 48.371094 53.125 49.175781 53.125 50 C 53.125 50.824219 52.839844 51.628906 52.347656 52.183594 C 51.851562 52.742188 51.171875 53.125 50 53.125 C 48.828125 53.125 48.148438 52.742188 47.652344 52.183594 C 47.160156 51.628906 46.875 50.824219 46.875 50 C 46.875 49.175781 47.160156 48.371094 47.652344 47.816406 C 48.148438 47.257812 48.828125 46.875 50 46.875 Z M 21.425781 48.4375 C 20.863281 48.429688 20.339844 48.726562 20.054688 49.210938 C 19.769531 49.699219 19.769531 50.300781 20.054688 50.789062 C 20.339844 51.273438 20.863281 51.570312 21.425781 51.5625 L 25.003906 51.5625 C 25.566406 51.570312 26.089844 51.273438 26.375 50.789062 C 26.660156 50.300781 26.660156 49.699219 26.375 49.210938 C 26.089844 48.726562 25.566406 48.429688 25.003906 48.4375 Z M 74.996094 48.4375 C 74.433594 48.429688 73.910156 48.726562 73.625 49.210938 C 73.339844 49.699219 73.339844 50.300781 73.625 50.789062 C 73.910156 51.273438 74.433594 51.570312 74.996094 51.5625 L 78.574219 51.5625 C 79.136719 51.570312 79.660156 51.273438 79.945312 50.789062 C 80.230469 50.300781 80.230469 49.699219 79.945312 49.210938 C 79.660156 48.726562 79.136719 48.429688 78.574219 48.4375 Z M 34.375 53.125 C 32.421875 53.125 30.757812 53.914062 29.691406 55.113281 C 28.621094 56.316406 28.125 57.855469 28.125 59.375 C 28.125 60.894531 28.621094 62.433594 29.691406 63.636719 C 30.757812 64.835938 32.421875 65.625 34.375 65.625 C 36.328125 65.625 37.992188 64.835938 39.058594 63.636719 C 40.128906 62.433594 40.625 60.894531 40.625 59.375 C 40.625 57.855469 40.128906 56.316406 39.058594 55.113281 C 37.992188 53.914062 36.328125 53.125 34.375 53.125 Z M 65.625 53.125 C 63.671875 53.125 62.007812 53.914062 60.941406 55.113281 C 59.871094 56.316406 59.375 57.855469 59.375 59.375 C 59.375 60.894531 59.871094 62.433594 60.941406 63.636719 C 62.007812 64.835938 63.671875 65.625 65.625 65.625 C 67.578125 65.625 69.242188 64.835938 70.308594 63.636719 C 71.378906 62.433594 71.875 60.894531 71.875 59.375 C 71.875 57.855469 71.378906 56.316406 70.308594 55.113281 C 69.242188 53.914062 67.578125 53.125 65.625 53.125 Z M 34.375 56.25 C 35.546875 56.25 36.226562 56.632812 36.722656 57.191406 C 37.214844 57.746094 37.5 58.550781 37.5 59.375 C 37.5 60.199219 37.214844 61.003906 36.722656 61.558594 C 36.226562 62.117188 35.546875 62.5 34.375 62.5 C 33.203125 62.5 32.523438 62.117188 32.027344 61.558594 C 31.535156 61.003906 31.25 60.199219 31.25 59.375 C 31.25 58.550781 31.535156 57.746094 32.027344 57.191406 C 32.523438 56.632812 33.203125 56.25 34.375 56.25 Z M 65.625 56.25 C 66.796875 56.25 67.476562 56.632812 67.972656 57.191406 C 68.464844 57.746094 68.75 58.550781 68.75 59.375 C 68.75 60.199219 68.464844 61.003906 67.972656 61.558594 C 67.476562 62.117188 66.796875 62.5 65.625 62.5 C 64.453125 62.5 63.773438 62.117188 63.277344 61.558594 C 62.785156 61.003906 62.5 60.199219 62.5 59.375 C 62.5 58.550781 62.785156 57.746094 63.277344 57.191406 C 63.773438 56.632812 64.453125 56.25 65.625 56.25 Z M 50 62.5 C 48.046875 62.5 46.382812 63.289062 45.316406 64.488281 C 44.246094 65.691406 43.75 67.230469 43.75 68.75 C 43.75 70.269531 44.246094 71.808594 45.316406 73.011719 C 46.382812 74.210938 48.046875 75 50 75 C 51.953125 75 53.617188 74.210938 54.683594 73.011719 C 55.753906 71.808594 56.25 70.269531 56.25 68.75 C 56.25 67.230469 55.753906 65.691406 54.683594 64.488281 C 53.617188 63.289062 51.953125 62.5 50 62.5 Z M 50 65.625 C 51.171875 65.625 51.851562 66.007812 52.347656 66.566406 C 52.839844 67.121094 53.125 67.925781 53.125 68.75 C 53.125 69.574219 52.839844 70.378906 52.347656 70.933594 C 51.851562 71.492188 51.171875 71.875 50 71.875 C 48.828125 71.875 48.148438 71.492188 47.652344 70.933594 C 47.160156 70.378906 46.875 69.574219 46.875 68.75 C 46.875 67.925781 47.160156 67.121094 47.652344 66.566406 C 48.148438 66.007812 48.828125 65.625 50 65.625 Z M 37.527344 70.066406 C 36.957031 70.058594 36.425781 70.367188 36.148438 70.867188 L 34.359375 73.960938 C 34.078125 74.445312 34.078125 75.042969 34.359375 75.527344 C 34.636719 76.011719 35.152344 76.308594 35.710938 76.308594 C 36.269531 76.308594 36.785156 76.011719 37.066406 75.527344 L 38.855469 72.429688 C 39.144531 71.949219 39.152344 71.351562 38.875 70.863281 C 38.601562 70.375 38.085938 70.070312 37.527344 70.066406 Z M 62.425781 70.070312 C 61.875 70.089844 61.375 70.398438 61.113281 70.882812 C 60.851562 71.371094 60.863281 71.957031 61.144531 72.429688 L 62.933594 75.527344 C 63.214844 76.011719 63.730469 76.308594 64.289062 76.308594 C 64.847656 76.308594 65.363281 76.011719 65.640625 75.527344 C 65.921875 75.042969 65.921875 74.445312 65.640625 73.960938 L 63.851562 70.867188 C 63.566406 70.355469 63.015625 70.046875 62.425781 70.070312 Z M 62.425781 70.070312 "/>
</g>
</svg>
