<?xml version="1.0" encoding="UTF-8"?>
<svg xmlns="http://www.w3.org/2000/svg" xmlns:xlink="http://www.w3.org/1999/xlink" width="100pt" height="100pt" viewBox="0 0 100 100" version="1.1">
<g id="surface17733444">
<path style=" stroke:none;fill-rule:nonzero;fill:rgb(94.509804%,73.72549%,9.803922%);fill-opacity:1;" d="M 79 12 C 78.449219 12 78 12.449219 78 13 C 78 13.550781 78.449219 14 79 14 C 79.550781 14 80 13.550781 80 13 C 80 12.449219 79.550781 12 79 12 Z M 79 12 "/>
<path style=" stroke:none;fill-rule:nonzero;fill:rgb(75.294118%,89.803922%,89.411765%);fill-opacity:1;" d="M 50 13 C 29.566406 13 13 29.566406 13 50 C 13 70.433594 29.566406 87 50 87 C 70.433594 87 87 70.433594 87 50 C 87 29.566406 70.433594 13 50 13 Z M 50 13 "/>
<path style=" stroke:none;fill-rule:nonzero;fill:rgb(94.509804%,73.72549%,9.803922%);fill-opacity:1;" d="M 85 11 C 82.789062 11 81 12.789062 81 15 C 81 17.210938 82.789062 19 85 19 C 87.210938 19 89 17.210938 89 15 C 89 12.789062 87.210938 11 85 11 Z M 85 11 "/>
<path style=" stroke:none;fill-rule:nonzero;fill:rgb(0%,64.705882%,64.705882%);fill-opacity:1;" d="M 13 27 C 11.894531 27 11 27.894531 11 29 C 11 30.105469 11.894531 31 13 31 C 14.105469 31 15 30.105469 15 29 C 15 27.894531 14.105469 27 13 27 Z M 13 27 "/>
<path style=" stroke:none;fill-rule:nonzero;fill:rgb(98.431373%,80.392157%,34.901961%);fill-opacity:1;" d="M 80 76 C 78.894531 76 78 76.894531 78 78 C 78 79.105469 78.894531 80 80 80 C 81.105469 80 82 79.105469 82 78 C 82 76.894531 81.105469 76 80 76 Z M 26 72 C 23.789062 72 22 73.789062 22 76 C 22 78.210938 23.789062 80 26 80 C 28.210938 80 30 78.210938 30 76 C 30 73.789062 28.210938 72 26 72 Z M 26 72 "/>
<path style=" stroke:none;fill-rule:nonzero;fill:rgb(0%,64.705882%,64.705882%);fill-opacity:1;" d="M 27 85 C 25.894531 85 25 85.894531 25 87 C 25 88.105469 25.894531 89 27 89 C 28.105469 89 29 88.105469 29 87 C 29 85.894531 28.105469 85 27 85 Z M 27 85 "/>
<path style=" stroke:none;fill-rule:nonzero;fill:rgb(100%,100%,100%);fill-opacity:1;" d="M 58.5 78 C 57.121094 78 56 79.121094 56 80.5 C 56 81.878906 57.121094 83 58.5 83 C 59.878906 83 61 81.878906 61 80.5 C 61 79.121094 59.878906 78 58.5 78 Z M 23.027344 68 C 22.492188 68 22.058594 68.433594 22.058594 68.972656 C 22.058594 69.507812 22.492188 69.941406 23.027344 69.941406 C 23.566406 69.941406 24 69.507812 24 68.972656 C 24 68.433594 23.566406 68 23.027344 68 Z M 23.027344 68 "/>
<path style=" stroke:none;fill-rule:nonzero;fill:rgb(94.509804%,73.72549%,9.803922%);fill-opacity:1;" d="M 85 30 C 84.449219 30 84 30.449219 84 31 C 84 31.550781 84.449219 32 85 32 C 85.550781 32 86 31.550781 86 31 C 86 30.449219 85.550781 30 85 30 Z M 85 30 "/>
<path style=" stroke:none;fill-rule:nonzero;fill:rgb(100%,100%,100%);fill-opacity:1;" d="M 78 66 C 76.894531 66 76 66.894531 76 68 C 76 69.105469 76.894531 70 78 70 C 79.105469 70 80 69.105469 80 68 C 80 66.894531 79.105469 66 78 66 Z M 79 33 C 78.449219 33 78 33.449219 78 34 C 78 34.550781 78.449219 35 79 35 C 79.550781 35 80 34.550781 80 34 C 80 33.449219 79.550781 33 79 33 Z M 79 33 "/>
<path style=" stroke:none;fill-rule:nonzero;fill:rgb(20.392157%,59.607843%,85.882353%);fill-opacity:1;" d="M 50 25 C 36.191406 25 25 36.191406 25 50 C 25 63.808594 36.191406 75 50 75 C 63.808594 75 75 63.808594 75 50 C 75 36.191406 63.808594 25 50 25 Z M 50 25 "/>
<path style=" stroke:none;fill-rule:nonzero;fill:rgb(20.392157%,59.607843%,85.882353%);fill-opacity:1;" d="M 50 30.5 C 39.230469 30.5 30.5 39.230469 30.5 50 C 30.5 60.769531 39.230469 69.5 50 69.5 C 60.769531 69.5 69.5 60.769531 69.5 50 C 69.5 39.230469 60.769531 30.5 50 30.5 Z M 50 30.5 "/>
<path style=" stroke:none;fill-rule:nonzero;fill:rgb(20.392157%,59.607843%,85.882353%);fill-opacity:1;" d="M 58 51.5 L 42 51.5 C 41.171875 51.5 40.5 50.828125 40.5 50 C 40.5 49.171875 41.171875 48.5 42 48.5 L 58 48.5 C 58.828125 48.5 59.5 49.171875 59.5 50 C 59.5 50.828125 58.828125 51.5 58 51.5 Z M 58 51.5 "/>
<path style=" stroke:none;fill-rule:nonzero;fill:rgb(20.392157%,59.607843%,85.882353%);fill-opacity:1;" d="M 50 26.398438 C 63.011719 26.398438 73.601562 36.984375 73.601562 50 C 73.601562 63.011719 63.011719 73.601562 50 73.601562 C 36.988281 73.601562 26.398438 63.011719 26.398438 50 C 26.398438 36.988281 36.988281 26.398438 50 26.398438 M 50 25 C 36.214844 25 25 36.214844 25 50 C 25 63.785156 36.214844 75 50 75 C 63.785156 75 75 63.785156 75 50 C 75 36.214844 63.785156 25 50 25 Z M 50 25 "/>
<path style=" stroke:none;fill-rule:nonzero;fill:rgb(41.960784%,70.980392%,87.843137%);fill-opacity:1;" d="M 50.125 33.375 C 60.460938 33.375 68.90625 41.363281 69.675781 51.5 C 69.714844 51.003906 69.753906 50.507812 69.753906 50 C 69.753906 39.160156 60.964844 30.375 50.125 30.375 C 39.285156 30.375 30.5 39.160156 30.5 50 C 30.5 50.507812 30.539062 51.003906 30.574219 51.5 C 31.34375 41.363281 39.792969 33.375 50.125 33.375 Z M 50.125 33.375 "/>
<path style=" stroke:none;fill-rule:nonzero;fill:rgb(20.392157%,59.607843%,85.882353%);fill-opacity:1;" d="M 58 48.75 C 58.6875 48.75 59.25 49.3125 59.25 50 C 59.25 50.6875 58.6875 51.25 58 51.25 L 42 51.25 C 41.3125 51.25 40.75 50.6875 40.75 50 C 40.75 49.3125 41.3125 48.75 42 48.75 Z M 58 48 L 42 48 C 40.894531 48 40 48.894531 40 50 C 40 51.105469 40.894531 52 42 52 L 58 52 C 59.105469 52 60 51.105469 60 50 C 60 48.894531 59.105469 48 58 48 Z M 58 48 "/>
<path style=" stroke:none;fill-rule:nonzero;fill:rgb(20.392157%,59.607843%,85.882353%);fill-opacity:1;" d="M 50 70 C 38.972656 70 30 61.027344 30 50 C 30 38.972656 38.972656 30 50 30 C 61.027344 30 70 38.972656 70 50 C 70 61.027344 61.027344 70 50 70 Z M 50 31 C 39.523438 31 31 39.523438 31 50 C 31 60.476562 39.523438 69 50 69 C 60.476562 69 69 60.476562 69 50 C 69 39.523438 60.476562 31 50 31 Z M 50 31 "/>
<path style=" stroke:none;fill-rule:nonzero;fill:rgb(6.666667%,37.647059%,88.627451%);fill-opacity:1;" d="M 61.085938 46.570312 L 61.085938 53.429688 L 38.914062 53.429688 L 38.914062 46.570312 Z M 61.085938 46.570312 "/>
</g>
</svg>
